<svg width="190" height="30" xmlns="http://www.w3.org/2000/svg">

 <g>
  <title>background</title>
  <rect fill="none" id="canvas_background" height="402" width="582" y="-1" x="-1"/>
 </g>
 <g>
  <title>Layer 1</title>
  <g id="svg_1" fill="#6EBF8B">
   <path id="svg_2" d="m10.25391,26.42578l0,-22.20703l-5.80078,0l0,22.20703l5.80078,0zm27.65625,0l0,-13.00781q0.02929,-1.875 -0.68848,-2.59277t-2.59277,-0.68848l-17.8125,0l0,16.28906l5.5664,0l0,-14.0039l2.16797,0l0,14.0039l5.625,0l0,-14.0039l0.9961,0q1.28906,-0.11719 1.17187,1.17187l0,12.83203l5.56641,0zm20.50781,2.69531l0,-15.58593q0.0293,-1.875 -0.68848,-2.59278t-2.59277,-0.68847l-12.53906,0l0,11.66015l10.13672,0l0,4.92188l-10.13672,0l0,2.28515l15.82031,0zm-5.68359,-9.49218l-4.39454,0l0,-7.08985l3.22266,0q1.28906,-0.11718 1.17188,1.17188l0,5.91797zm43.94531,6.79687l0,-9.19922q0.02929,-1.875 -0.68848,-2.59277t-2.59277,-0.68848l-9.25781,0l0,-7.4414l12.42187,0l0,-2.28516l-18.16406,0l0,12.01172l11.36719,0q1.28906,-0.11719 1.17187,1.17187l0,6.73829l-12.53906,0l0,2.28515l18.28125,0zm10.95703,-15.70312l0,-3.92578l-5.68359,0l0,3.92578l-2.16797,0l0,2.28515l2.16797,0l0,13.41797l10.60546,0l0,-2.28515l-4.92187,0l0,-11.13282l5.03906,0l0,-2.28515l-5.03906,0zm7.96875,-0.58594l0,2.28516l0.35156,0q0.9961,-0.0586 0.9375,0.9375l0,13.0664l5.74219,0l0,-13.00781q0.0293,-1.875 -0.68848,-2.59277t-2.59277,-0.68848l-3.75,0zm7.03125,-2.63672l0,-4.21875l-5.74219,0l0,4.21875l5.74219,0zm12.71484,3.22266l0,-3.92578l-5.68359,0l0,3.92578l-2.16797,0l0,2.28515l2.16797,0l0,13.41797l10.60547,0l0,-2.28515l-4.92188,0l0,-11.13282l5.03907,0l0,-2.28515l-5.03907,0zm23.78907,15.70312l0,-2.28515l-9.72657,0l0,-11.71875l9.72657,0l0,-2.28516l-15.29297,0l0,16.28906l15.29297,0zm20.21484,0l0,-11.83594q0.0293,-1.875 -0.68848,-2.59277t-2.59277,-0.68848l-6.32813,0l0,-4.45312l-5.625,0l0,19.57031l5.625,0l0,-12.83203l2.75391,0q1.28906,-0.11719 1.17188,1.17188l0,11.66015l5.68359,0z"/>
  </g>
 </g>
</svg>